<svg width="22" height="24" viewBox="0 0 22 24" fill="none" xmlns="http://www.w3.org/2000/svg">
<path fill-rule="evenodd" clip-rule="evenodd" d="M16.9022 10.1817C16.9022 11.2869 17.1944 11.9374 17.8372 12.6881C18.3243 13.2411 18.48 13.9519 18.48 14.7212C18.48 15.4914 18.2264 16.2208 17.72 16.8137C17.0579 17.5245 16.123 17.9783 15.1688 18.0572C13.7852 18.175 12.4024 18.2743 11.0005 18.2743C9.5976 18.2743 8.21486 18.2149 6.83212 18.0572C5.87706 17.9783 4.94212 17.5245 4.28005 16.8137C3.77278 16.2208 3.52002 15.4914 3.52002 14.7212C3.52002 13.9519 3.6757 13.2411 4.16285 12.6881C4.82492 11.9374 5.09779 11.2869 5.09779 10.1817V9.80591C5.09779 8.32582 5.46775 7.35801 6.22778 6.41146C7.35776 5.02887 9.16905 4.2002 10.9611 4.2002H11.0389C12.8695 4.2002 14.7394 5.06875 15.8501 6.50984C16.5708 7.43777 16.9022 8.36571 16.9022 9.80591V10.1817ZM9.2072 19.3612C9.64712 19.2672 12.3278 19.2672 12.7677 19.3612C13.1438 19.448 13.5505 19.6501 13.5505 20.0932C13.5286 20.516 13.2811 20.8891 12.9382 21.1257L12.9391 21.1266C12.4957 21.4723 11.9753 21.6921 11.4313 21.7709C11.1304 21.8091 10.8348 21.8108 10.5445 21.7709C9.99958 21.6921 9.4792 21.4723 9.03578 21.1266L9.03665 21.1257C8.69381 20.8891 8.4463 20.516 8.42443 20.0932C8.42443 19.6501 8.83112 19.448 9.2072 19.3612Z" fill="#202123"/>
<path d="M17.8372 12.6881C17.1944 11.9374 16.9022 11.2869 16.9022 10.1817V9.80591C16.9022 8.36571 16.5708 7.43777 15.8501 6.50984C14.7394 5.06875 12.8695 4.2002 11.0389 4.2002H10.9611C9.16905 4.2002 7.35776 5.02887 6.22778 6.41146C5.46775 7.35801 5.09779 8.32582 5.09779 9.80591V10.1817C5.09779 11.2869 4.82492 11.9374 4.16285 12.6881C3.6757 13.2411 3.52002 13.9519 3.52002 14.7212C3.52002 15.4914 3.77278 16.2208 4.28005 16.8137C4.94212 17.5245 5.87706 17.9783 6.83212 18.0572C8.21486 18.2149 9.5976 18.2743 11.0005 18.2743C12.4024 18.2743 13.7852 18.175 15.1688 18.0572C16.123 17.9783 17.0579 17.5245 17.72 16.8137C18.2264 16.2208 18.48 15.4914 18.48 14.7212C18.48 13.9519 18.3243 13.2411 17.8372 12.6881Z" fill="#E8E8E8"/>
<path opacity="0.4" d="M12.7676 19.361C12.3276 19.267 9.647 19.267 9.20708 19.361C8.831 19.4478 8.42432 19.6499 8.42432 20.0931C8.44618 20.5158 8.69369 20.8889 9.03654 21.1256L9.03566 21.1265C9.47908 21.4721 9.99947 21.6919 10.5443 21.7708C10.8347 21.8107 11.1303 21.8089 11.4312 21.7708C11.9752 21.6919 12.4956 21.4721 12.939 21.1265L12.9381 21.1256C13.281 20.8889 13.5285 20.5158 13.5503 20.0931C13.5503 19.6499 13.1436 19.4478 12.7676 19.361Z" fill="#E8E8E8"/>
<path d="M17 1C19.2091 1 21 2.79086 21 5C21 7.20914 19.2091 9 17 9C14.7909 9 13 7.20914 13 5C13 2.79086 14.7909 1 17 1Z" fill="#FF6640" stroke="#151517" stroke-width="2"/>
</svg>
