<svg width="22" height="24" viewBox="0 0 22 24" fill="none" xmlns="http://www.w3.org/2000/svg">
<path fill-rule="evenodd" clip-rule="evenodd" d="M16.9022 10.1814C16.9022 11.2866 17.1944 11.9372 17.8372 12.6878C18.3243 13.2409 18.48 13.9517 18.48 14.721C18.48 15.4911 18.2264 16.2206 17.72 16.8135C17.0579 17.5243 16.123 17.978 15.1688 18.0569C13.7852 18.1748 12.4024 18.2741 11.0005 18.2741C9.5976 18.2741 8.21486 18.2147 6.83212 18.0569C5.87706 17.978 4.94212 17.5243 4.28005 16.8135C3.77278 16.2206 3.52002 15.4911 3.52002 14.721C3.52002 13.9517 3.6757 13.2409 4.16285 12.6878C4.82492 11.9372 5.09779 11.2866 5.09779 10.1814V9.80567C5.09779 8.32558 5.46775 7.35776 6.22778 6.41122C7.35776 5.02862 9.16905 4.19995 10.9611 4.19995H11.0389C12.8695 4.19995 14.7394 5.0685 15.8501 6.50959C16.5708 7.43753 16.9022 8.36546 16.9022 9.80567V10.1814ZM9.2072 19.3609C9.64712 19.267 12.3278 19.267 12.7677 19.3609C13.1438 19.4478 13.5505 19.6498 13.5505 20.093C13.5286 20.5157 13.2811 20.8889 12.9382 21.1255L12.9391 21.1264C12.4957 21.472 11.9753 21.6918 11.4313 21.7707C11.1304 21.8088 10.8348 21.8106 10.5445 21.7707C9.99958 21.6918 9.4792 21.472 9.03578 21.1264L9.03665 21.1255C8.69381 20.8889 8.4463 20.5157 8.42443 20.093C8.42443 19.6498 8.83112 19.4478 9.2072 19.3609Z" fill="#F1F3F7"/>
<path d="M17.8372 12.6878C17.1944 11.9372 16.9022 11.2866 16.9022 10.1814V9.80567C16.9022 8.36546 16.5708 7.43753 15.8501 6.50959C14.7394 5.0685 12.8695 4.19995 11.0389 4.19995H10.9611C9.16905 4.19995 7.35776 5.02862 6.22778 6.41122C5.46775 7.35776 5.09779 8.32558 5.09779 9.80567V10.1814C5.09779 11.2866 4.82492 11.9372 4.16285 12.6878C3.6757 13.2409 3.52002 13.9517 3.52002 14.721C3.52002 15.4911 3.77278 16.2206 4.28005 16.8135C4.94212 17.5243 5.87706 17.978 6.83212 18.0569C8.21486 18.2147 9.5976 18.2741 11.0005 18.2741C12.4024 18.2741 13.7852 18.1748 15.1688 18.0569C16.123 17.978 17.0579 17.5243 17.72 16.8135C18.2264 16.2206 18.48 15.4911 18.48 14.721C18.48 13.9517 18.3243 13.2409 17.8372 12.6878Z" fill="#1A1926"/>
<path opacity="0.4" d="M12.7677 19.361C12.3278 19.267 9.64713 19.267 9.2072 19.361C8.83113 19.4478 8.42444 19.6499 8.42444 20.0931C8.4463 20.5158 8.69381 20.8889 9.03666 21.1256L9.03578 21.1265C9.4792 21.4721 9.99959 21.6919 10.5445 21.7708C10.8348 21.8107 11.1304 21.8089 11.4313 21.7708C11.9753 21.6919 12.4957 21.4721 12.9391 21.1265L12.9382 21.1256C13.2811 20.8889 13.5286 20.5158 13.5505 20.0931C13.5505 19.6499 13.1438 19.4478 12.7677 19.361Z" fill="#1A1926"/>
<path d="M17 9C19.2091 9 21 7.20914 21 5C21 2.79086 19.2091 1 17 1C14.7909 1 13 2.79086 13 5C13 7.20914 14.7909 9 17 9Z" fill="#FF6640" stroke="#F1F3F7" stroke-width="2"/>
</svg>
