<svg width="22" height="22" viewBox="0 0 22 22" fill="none" xmlns="http://www.w3.org/2000/svg">
<path fill-rule="evenodd" clip-rule="evenodd" d="M14.7075 4.47236C14.542 3.19396 13.4582 2.19995 12.1367 2.19995H9.86337C8.54095 2.19995 7.45801 3.19396 7.29249 4.47236H5.56068C3.70736 4.47236 2.20005 5.97614 2.20005 7.82506V10.1926H2.19995C2.19998 10.1942 2.20002 10.1958 2.20005 10.1973V10.8766C2.20005 10.932 2.20695 10.9864 2.2202 11.0389C2.2736 13.0955 2.36947 15.8213 2.38484 16.1602C2.44735 16.9905 2.76519 17.8295 3.26 18.4212C3.9485 19.2514 4.79636 19.6221 5.97878 19.6221C7.61287 19.6309 9.41424 19.6309 11.1637 19.6309C12.9201 19.6309 14.6247 19.6309 16.0642 19.6221C17.2299 19.6221 18.1041 19.2418 18.7838 18.4212C19.2786 17.8295 19.5965 16.9817 19.6414 16.1602C19.6508 15.9853 19.6805 14.8074 19.7141 13.4717L19.7141 13.4711L19.7141 13.4707C19.7345 12.6597 19.7564 11.7906 19.7761 11.0525C19.7917 10.9959 19.8 10.9368 19.8 10.8766V7.82506C19.8 5.97614 18.2962 4.47236 16.4481 4.47236H14.7075ZM9.86337 3.5206H12.1367C12.7283 3.5206 13.2231 3.92561 13.371 4.47236H8.62811C8.77603 3.92561 9.27083 3.5206 9.86337 3.5206Z" fill="#F1F3F7"/>
<path opacity="0.4" d="M2.19995 10.1926C2.24397 12.2511 2.36723 15.7719 2.38484 16.1602C2.44735 16.9905 2.76519 17.8295 3.26 18.4212C3.9485 19.2514 4.79636 19.6221 5.97878 19.6221C7.61287 19.6309 9.41424 19.6309 11.1637 19.6309C12.9201 19.6309 14.6247 19.6309 16.0642 19.6221C17.2299 19.6221 18.1041 19.2417 18.7838 18.4212C19.2786 17.8295 19.5965 16.9817 19.6414 16.1602C19.659 15.8336 19.747 12.0116 19.7999 10.1926H2.19995Z" fill="#1A1926"/>
<path d="M10.3398 13.9836V15.1229C10.3398 15.4874 10.6357 15.7832 11.0002 15.7832C11.3647 15.7832 11.6605 15.4874 11.6605 15.1229V13.9836C11.6605 13.6191 11.3647 13.3232 11.0002 13.3232C10.6357 13.3232 10.3398 13.6191 10.3398 13.9836Z" fill="#1A1926"/>
<path d="M12.1367 2.19995C13.4582 2.19995 14.542 3.19396 14.7075 4.47236H16.4482C18.2962 4.47236 19.8 5.97614 19.8 7.82506V10.8766C19.8 11.0985 19.6882 11.3054 19.5042 11.4278C17.6887 12.6296 15.5334 13.4299 13.2724 13.7425C13.2416 13.7469 13.2117 13.7486 13.1817 13.7486C12.8833 13.7486 12.6165 13.547 12.5417 13.2512C12.3638 12.5504 11.7273 12.06 10.9956 12.06C10.2543 12.06 9.62479 12.5398 9.42933 13.2547C9.34129 13.5743 9.03402 13.7786 8.70121 13.7345C6.45522 13.4211 4.30872 12.6243 2.49678 11.4278C2.31101 11.3063 2.20007 11.0985 2.20007 10.8766V7.82506C2.20007 5.97614 3.70738 4.47236 5.5607 4.47236H7.29251C7.45804 3.19396 8.54097 2.19995 9.86339 2.19995H12.1367ZM12.1367 3.5206H9.86339C9.27085 3.5206 8.77605 3.92561 8.62814 4.47236H13.371C13.2231 3.92561 12.7283 3.5206 12.1367 3.5206Z" fill="#1A1926"/>
</svg>
