<svg width="22" height="22" viewBox="0 0 22 22" fill="none" xmlns="http://www.w3.org/2000/svg">
<path fill-rule="evenodd" clip-rule="evenodd" d="M14.7075 4.4724C14.542 3.19401 13.4582 2.2 12.1367 2.2H9.86337C8.54095 2.2 7.45801 3.19401 7.29249 4.4724H5.56068C3.70736 4.4724 2.20005 5.97619 2.20005 7.8251V10.1927H2.19995C2.19998 10.1942 2.20002 10.1958 2.20005 10.1974V10.8767C2.20005 10.932 2.20695 10.9865 2.2202 11.039C2.2736 13.0955 2.36947 15.8214 2.38484 16.1603C2.44735 16.9905 2.76519 17.8296 3.26 18.4212C3.9485 19.2515 4.79636 19.6222 5.97878 19.6222C7.61287 19.631 9.41424 19.631 11.1637 19.631C12.9201 19.631 14.6247 19.631 16.0642 19.6222C17.2299 19.6222 18.1041 19.2418 18.7838 18.4212C19.2786 17.8296 19.5965 16.9817 19.6414 16.1603C19.6508 15.9853 19.6805 14.8075 19.7141 13.4717L19.7141 13.4711L19.7141 13.4707C19.7345 12.6597 19.7564 11.7906 19.7761 11.0525C19.7917 10.9959 19.8 10.9369 19.8 10.8767V7.8251C19.8 5.97619 18.2962 4.4724 16.4481 4.4724H14.7075ZM9.86337 3.52065H12.1367C12.7283 3.52065 13.2231 3.92565 13.371 4.4724H8.62811C8.77603 3.92565 9.27083 3.52065 9.86337 3.52065Z" fill="#F1F3F7"/>
<path opacity="0.4" d="M2.19995 10.1927C2.24397 12.2511 2.36723 15.772 2.38484 16.1603C2.44735 16.9905 2.76519 17.8296 3.26 18.4212C3.9485 19.2515 4.79636 19.6222 5.97878 19.6222C7.61287 19.631 9.41424 19.631 11.1637 19.631C12.9201 19.631 14.6247 19.631 16.0642 19.6222C17.2299 19.6222 18.1041 19.2418 18.7838 18.4212C19.2786 17.8296 19.5965 16.9817 19.6414 16.1603C19.659 15.8336 19.747 12.0117 19.7999 10.1927H2.19995Z" fill="#2D99FF"/>
<path d="M10.3398 13.9836V15.1229C10.3398 15.4874 10.6357 15.7832 11.0002 15.7832C11.3647 15.7832 11.6605 15.4874 11.6605 15.1229V13.9836C11.6605 13.6191 11.3647 13.3232 11.0002 13.3232C10.6357 13.3232 10.3398 13.6191 10.3398 13.9836Z" fill="#2D99FF"/>
<path d="M12.1368 2.2C13.4583 2.2 14.5421 3.19401 14.7077 4.4724H16.4483C18.2963 4.4724 19.8001 5.97619 19.8001 7.8251V10.8767C19.8001 11.0986 19.6883 11.3055 19.5043 11.4278C17.6888 12.6296 15.5335 13.43 13.2726 13.7425C13.2417 13.7469 13.2118 13.7487 13.1819 13.7487C12.8834 13.7487 12.6166 13.5471 12.5418 13.2512C12.3639 12.5504 11.7274 12.06 10.9957 12.06C10.2544 12.06 9.62491 12.5398 9.42945 13.2547C9.34141 13.5743 9.03414 13.7786 8.70133 13.7346C6.45534 13.4212 4.30884 12.6244 2.4969 11.4278C2.31113 11.3063 2.2002 11.0986 2.2002 10.8767V7.8251C2.2002 5.97619 3.7075 4.4724 5.56082 4.4724H7.29264C7.45816 3.19401 8.54109 2.2 9.86351 2.2H12.1368ZM12.1368 3.52065H9.86351C9.27098 3.52065 8.77617 3.92565 8.62826 4.4724H13.3712C13.2233 3.92565 12.7284 3.52065 12.1368 3.52065Z" fill="#2D99FF"/>
</svg>
