<svg width="20" height="20" viewBox="0 0 20 20" fill="none" xmlns="http://www.w3.org/2000/svg">
<path fill-rule="evenodd" clip-rule="evenodd" d="M11.97 6.42211C11.97 8.65418 10.2035 10.4434 7.99989 10.4434C5.79623 10.4434 4.02979 8.65418 4.02979 6.42211C4.02979 4.19005 5.79623 2.40002 7.99989 2.40002C10.2035 2.40002 11.97 4.19005 11.97 6.42211ZM16.3182 8.07031H17.2807C17.6769 8.07031 17.9999 8.39787 17.9999 8.79961C17.9999 9.20134 17.6769 9.5289 17.2807 9.5289H16.3182V10.4707C16.3182 10.8725 15.9961 11.2 15.5991 11.2C15.2029 11.2 14.8799 10.8725 14.8799 10.4707V9.5289H13.9191C13.5221 9.5289 13.1999 9.20134 13.1999 8.79961C13.1999 8.39787 13.5221 8.07031 13.9191 8.07031H14.8799V7.12932C14.8799 6.72758 15.2029 6.40002 15.5991 6.40002C15.9961 6.40002 16.3182 6.72758 16.3182 7.12932V8.07031Z" fill="#F1F3F7"/>
<path opacity="0.3" d="M17.2808 8.07031H16.3183V7.12932C16.3183 6.72758 15.9961 6.40002 15.5991 6.40002C15.203 6.40002 14.88 6.72758 14.88 7.12932V8.07031H13.9191C13.5221 8.07031 13.2 8.39787 13.2 8.79961C13.2 9.20134 13.5221 9.5289 13.9191 9.5289H14.88V10.4707C14.88 10.8725 15.203 11.2 15.5991 11.2C15.9961 11.2 16.3183 10.8725 16.3183 10.4707V9.5289H17.2808C17.6769 9.5289 18 9.20134 18 8.79961C18 8.39787 17.6769 8.07031 17.2808 8.07031Z" fill="#1A1926"/>
<path d="M8 12.4124C4.76338 12.4124 2 12.9298 2 14.9972C2 17.0638 4.74656 17.6 8 17.6C11.2358 17.6 14 17.0825 14 15.0151C14 12.9477 11.2534 12.4124 8 12.4124Z" fill="#1A1926"/>
<path opacity="0.3" d="M7.99989 10.4434C10.2035 10.4434 11.97 8.65418 11.97 6.42212C11.97 4.19005 10.2035 2.40002 7.99989 2.40002C5.79623 2.40002 4.02979 4.19005 4.02979 6.42212C4.02979 8.65418 5.79623 10.4434 7.99989 10.4434Z" fill="#1A1926"/>
</svg>
