<svg width="20" height="20" viewBox="0 0 20 20" fill="none" xmlns="http://www.w3.org/2000/svg">
<path d="M2.5 8C2.51071 7.49107 2.55189 6.48101 2.6293 6.15589C3.02463 4.32738 4.36707 3.1656 6.28603 3H13.7148C15.6173 3.17427 16.9762 4.34385 17.3715 6.15589C17.4481 6.47234 17.4893 7.4902 17.5 8H2.5Z" fill="#F1F3F7"/>
<path d="M13.3754 14.9316C12.9967 14.9238 12.6921 14.6256 12.6921 14.2646C12.6839 13.9036 12.9885 13.6062 13.3672 13.5984H13.3754C13.7623 13.5984 14.0752 13.8966 14.0752 14.2646C14.0752 14.6334 13.7623 14.9316 13.3754 14.9316ZM10.0165 12.0438C9.63776 12.0603 9.32492 11.777 9.30845 11.4168C9.30845 11.0558 9.60483 10.7576 9.98353 10.7411C10.354 10.7411 10.6586 11.0166 10.6668 11.3689C10.6833 11.7307 10.3869 12.0289 10.0165 12.0438ZM10.0165 14.8924C9.63776 14.9089 9.32492 14.6256 9.30845 14.2646C9.30845 13.9036 9.60483 13.6062 9.98353 13.5897C10.354 13.5897 10.6586 13.8652 10.6668 14.2183C10.6833 14.5793 10.3869 14.8775 10.0165 14.8924ZM6.63282 12.0438C6.25412 12.0603 5.94127 11.777 5.92481 11.4168C5.92481 11.0558 6.22119 10.7576 6.59989 10.7411C6.97036 10.7411 7.27497 11.0166 7.28321 11.3689C7.29967 11.7307 7.00329 12.0289 6.63282 12.0438ZM6.62459 14.8924C6.24588 14.9089 5.93304 14.6256 5.91658 14.2646C5.91658 13.9036 6.21295 13.6062 6.59166 13.5897C6.96213 13.5897 7.26674 13.8652 7.27497 14.2183C7.29144 14.5793 6.99506 14.8775 6.62459 14.8924ZM12.7003 11.4089C12.7003 11.0479 12.9967 10.7576 13.3754 10.7497C13.7459 10.7497 14.0423 11.0315 14.0587 11.3775C14.067 11.7385 13.7706 12.0367 13.4001 12.0438C13.0214 12.0516 12.7086 11.777 12.7003 11.4168V11.4089ZM2.5 8V13.9743C2.5 16.4541 4.16301 18 6.77278 18H13.219C15.8535 18 17.5 16.4854 17.5 14.0221V8H2.5Z" fill="#1A1926"/>
<path opacity="0.3" d="M2.5 8C2.51071 7.49107 2.55189 6.48101 2.6293 6.15589C3.02463 4.32738 4.36707 3.1656 6.28603 3H13.7148C15.6173 3.17427 16.9762 4.34385 17.3715 6.15589C17.4481 6.47234 17.4893 7.4902 17.5 8H2.5Z" fill="#1A1926"/>
<path d="M6.90861 5.672C7.25636 5.672 7.51717 5.4088 7.51717 5.056V2.6168C7.51717 2.264 7.25636 2 6.90861 2C6.56086 2 6.30005 2.264 6.30005 2.6168V5.056C6.30005 5.4088 6.56086 5.672 6.90861 5.672Z" fill="#1A1926"/>
<path d="M13.0885 5.672C13.4284 5.672 13.6971 5.4088 13.6971 5.056V2.6168C13.6971 2.264 13.4284 2 13.0885 2C12.7408 2 12.48 2.264 12.48 2.6168V5.056C12.48 5.4088 12.7408 5.672 13.0885 5.672Z" fill="#1A1926"/>
</svg>
