<svg width="16" height="16" viewBox="0 0 16 16" fill="none" xmlns="http://www.w3.org/2000/svg">
<g clip-path="url(#clip0_7623_5005)">
<path d="M15.992 8.14974C15.992 7.49423 15.9376 7.01588 15.8198 6.51982H8.15985V9.47848H12.6561C12.5655 10.2137 12.0759 11.321 10.9881 12.0651L10.9729 12.1642L13.3948 13.9976L13.5626 14.014C15.1036 12.6232 15.992 10.5769 15.992 8.14974" fill="#4285F4"/>
<path d="M8.15949 15.9451C10.3623 15.9451 12.2115 15.2364 13.5623 14.014L10.9878 12.0651C10.2988 12.5346 9.37418 12.8624 8.15949 12.8624C6.00202 12.8624 4.17089 11.4716 3.51814 9.54938L3.42246 9.55732L0.904089 11.4619L0.871155 11.5513C2.21277 14.1557 4.96856 15.9451 8.15949 15.9451Z" fill="#34A853"/>
<path d="M3.51781 9.54932C3.34558 9.05325 3.2459 8.52171 3.2459 7.97252C3.2459 7.42327 3.34558 6.89179 3.50875 6.39573L3.50419 6.29008L0.954262 4.35493L0.870833 4.39371C0.31789 5.47445 0.000610352 6.68806 0.000610352 7.97252C0.000610352 9.25698 0.31789 10.4705 0.870833 11.5513L3.51781 9.54932" fill="#FBBC05"/>
<path d="M8.15947 3.08272C9.69143 3.08272 10.7248 3.72937 11.3141 4.26977L13.6166 2.07289C12.2025 0.788428 10.3622 3.05176e-05 8.15947 3.05176e-05C4.96854 3.05176e-05 2.21277 1.7894 0.871155 4.39374L3.50907 6.39576C4.17088 4.4735 6.002 3.08272 8.15947 3.08272" fill="#EB4335"/>
</g>
<defs>
<clipPath id="clip0_7623_5005">
<rect width="16" height="16" fill="white"/>
</clipPath>
</defs>
</svg>
