<svg width="22" height="22" viewBox="0 0 22 22" fill="none" xmlns="http://www.w3.org/2000/svg">
<path fill-rule="evenodd" clip-rule="evenodd" d="M12.9468 7.49097C12.9468 9.81748 11.043 11.6819 8.66733 11.6819C6.29253 11.6819 4.38787 9.81748 4.38787 7.49097C4.38787 5.16446 6.29253 3.30005 8.66733 3.30005C11.043 3.30005 12.9468 5.16446 12.9468 7.49097ZM2.19995 16.4273C2.19995 14.2737 5.17921 13.7349 8.66736 13.7349C12.1745 13.7349 15.1348 14.2922 15.1348 16.4476C15.1348 18.6012 12.1555 19.14 8.66736 19.14C5.16027 19.14 2.19995 18.5827 2.19995 16.4273ZM14.6725 7.56695C14.6725 8.75171 14.3092 9.8572 13.672 10.7755C13.6057 10.8699 13.6642 10.9973 13.7796 11.0175C13.9398 11.0436 14.1042 11.0597 14.2721 11.063C15.9426 11.106 17.4417 10.0528 17.8559 8.46669C18.4698 6.1132 16.6685 4.00003 14.3737 4.00003C14.1249 4.00003 13.8864 4.02533 13.6539 4.0717C13.622 4.07845 13.5876 4.09363 13.5704 4.12061C13.548 4.15519 13.5643 4.19988 13.5867 4.22939C14.2764 5.17635 14.6725 6.32907 14.6725 7.56695ZM17.4391 12.7181C18.5619 12.9331 19.2999 13.3707 19.6055 14.0091C19.8647 14.5319 19.8647 15.139 19.6055 15.6618C19.138 16.6501 17.6294 16.968 17.043 17.0498C16.9216 17.0667 16.8243 16.9655 16.8372 16.8458C17.1369 14.1069 14.7543 12.8083 14.1378 12.5098C14.112 12.4955 14.106 12.4752 14.1085 12.4617C14.1103 12.4533 14.1215 12.4398 14.1413 12.4373C15.475 12.412 16.9096 12.5916 17.4391 12.7181Z" fill="#F1F3F7"/>
<path d="M8.66736 13.7349C5.17921 13.7349 2.19995 14.2737 2.19995 16.4273C2.19995 18.5827 5.16027 19.1401 8.66736 19.1401C12.1555 19.1401 15.1348 18.6012 15.1348 16.4476C15.1348 14.2922 12.1745 13.7349 8.66736 13.7349Z" fill="#1A1926"/>
<path opacity="0.3" d="M8.6674 11.6819C11.0431 11.6819 12.9469 9.81748 12.9469 7.49097C12.9469 5.16446 11.0431 3.30005 8.6674 3.30005C6.2926 3.30005 4.38794 5.16446 4.38794 7.49097C4.38794 9.81748 6.2926 11.6819 8.6674 11.6819Z" fill="#1A1926"/>
<path opacity="0.3" d="M14.6725 7.56692C14.6725 8.75168 14.3092 9.85717 13.672 10.7755C13.6057 10.8699 13.6642 10.9972 13.7796 11.0175C13.9398 11.0436 14.1042 11.0596 14.2721 11.063C15.9426 11.106 17.4417 10.0528 17.8559 8.46666C18.4698 6.11317 16.6685 4 14.3737 4C14.1249 4 13.8864 4.0253 13.6539 4.07168C13.622 4.07842 13.5876 4.0936 13.5704 4.12058C13.548 4.15516 13.5643 4.19985 13.5867 4.22936C14.2764 5.17633 14.6725 6.32904 14.6725 7.56692Z" fill="#1A1926"/>
<path d="M19.6056 14.009C19.2999 13.3707 18.562 12.933 17.4392 12.718C16.9096 12.5915 15.4751 12.4119 14.1413 12.4372C14.1215 12.4398 14.1103 12.4532 14.1086 12.4617C14.106 12.4752 14.112 12.4954 14.1379 12.5097C14.7544 12.8082 17.1369 14.1068 16.8373 16.8457C16.8244 16.9654 16.9217 17.0666 17.0431 17.0498C17.6295 16.968 19.138 16.6501 19.6056 15.6618C19.8648 15.139 19.8648 14.5318 19.6056 14.009Z" fill="#1A1926"/>
</svg>
