<svg width="22" height="22" viewBox="0 0 22 22" fill="none" xmlns="http://www.w3.org/2000/svg">
<path d="M8.66699 13.7344C12.1739 13.7344 15.1345 14.2921 15.1348 16.4473C15.1348 18.6009 12.1551 19.1396 8.66699 19.1396C5.16033 19.1396 2.20061 18.5826 2.2002 16.4277C2.2002 14.2742 5.17902 13.7344 8.66699 13.7344ZM14.1416 12.4375C15.4753 12.4122 16.9099 12.5913 17.4395 12.7178C18.562 12.9328 19.2997 13.3706 19.6055 14.0088C19.8646 14.5316 19.8646 15.1393 19.6055 15.6621C19.1377 16.6501 17.6293 16.968 17.043 17.0498C16.9216 17.0666 16.824 16.9654 16.8369 16.8457C17.1366 14.1068 14.7542 12.8083 14.1377 12.5098C14.1121 12.4955 14.1059 12.4754 14.1084 12.4619C14.1101 12.4535 14.1218 12.44 14.1416 12.4375ZM8.66699 3.2998C11.0427 3.2998 12.9473 5.1647 12.9473 7.49121C12.9471 9.81759 11.0426 11.6816 8.66699 11.6816C6.29247 11.6814 4.38785 9.81746 4.3877 7.49121C4.3877 5.16483 6.29237 3.30001 8.66699 3.2998ZM14.374 4C16.6686 4.00015 18.4694 6.11339 17.8555 8.4668C17.4412 10.0527 15.9427 11.1063 14.2725 11.0635C14.1046 11.0601 13.9395 11.0437 13.7793 11.0176C13.6641 10.9972 13.6057 10.8697 13.6719 10.7754C14.309 9.85722 14.6728 8.75196 14.6729 7.56738C14.6729 6.32957 14.2765 5.17642 13.5869 4.22949C13.5645 4.19998 13.5479 4.15469 13.5703 4.12012C13.5876 4.0933 13.6225 4.07801 13.6543 4.07129C13.8867 4.02496 14.1253 4 14.374 4Z" fill="#202123"/>
<path d="M8.66741 13.7349C5.17926 13.7349 2.2 14.2737 2.2 16.4273C2.2 18.5827 5.16032 19.1401 8.66741 19.1401C12.1556 19.1401 15.1348 18.6012 15.1348 16.4476C15.1348 14.2922 12.1745 13.7349 8.66741 13.7349Z" fill="#2D99FF"/>
<path opacity="0.4" d="M8.66737 11.6816C11.043 11.6816 12.9468 9.81724 12.9468 7.49073C12.9468 5.16422 11.043 3.2998 8.66737 3.2998C6.29257 3.2998 4.38791 5.16422 4.38791 7.49073C4.38791 9.81724 6.29257 11.6816 8.66737 11.6816Z" fill="#2D99FF"/>
<path opacity="0.4" d="M14.6726 7.56692C14.6726 8.75168 14.3092 9.85717 13.672 10.7755C13.6057 10.8699 13.6643 10.9972 13.7796 11.0175C13.9398 11.0436 14.1043 11.0596 14.2722 11.063C15.9426 11.106 17.4417 10.0528 17.8559 8.46666C18.4698 6.11317 16.6685 4 14.3738 4C14.1249 4 13.8864 4.0253 13.6539 4.07168C13.6221 4.07842 13.5876 4.0936 13.5704 4.12058C13.548 4.15516 13.5644 4.19985 13.5868 4.22936C14.2765 5.17633 14.6726 6.32904 14.6726 7.56692Z" fill="#2D99FF"/>
<path d="M19.6056 14.0093C19.2999 13.3709 18.562 12.9333 17.4392 12.7183C16.9096 12.5918 15.4751 12.4122 14.1413 12.4375C14.1215 12.44 14.1103 12.4535 14.1086 12.4619C14.106 12.4754 14.112 12.4956 14.1379 12.51C14.7544 12.8085 17.1369 14.1071 16.8373 16.8459C16.8244 16.9657 16.9217 17.0669 17.0431 17.05C17.6295 16.9682 19.138 16.6503 19.6056 15.662C19.8648 15.1392 19.8648 14.5321 19.6056 14.0093Z" fill="#2D99FF"/>
</svg>
