<svg width="22" height="22" viewBox="0 0 22 22" fill="none" xmlns="http://www.w3.org/2000/svg">
<path d="M12.1367 2.2002C13.4582 2.2002 14.5425 3.19427 14.708 4.47266H16.4482C18.2963 4.47268 19.7998 5.9763 19.7998 7.8252V10.877C19.7998 10.9341 19.7915 10.99 19.7773 11.0439C19.7252 12.9979 19.6568 15.8777 19.6416 16.1602C19.5967 16.9814 19.2788 17.8293 18.7842 18.4209C18.1045 19.2414 17.23 19.622 16.0645 19.6221C14.625 19.6309 12.9204 19.6309 11.1641 19.6309C9.41464 19.6309 7.6126 19.6309 5.97852 19.6221C4.79625 19.622 3.94821 19.2511 3.25977 18.4209C2.76512 17.8293 2.44726 16.9902 2.38477 16.1602C2.36939 15.8209 2.2751 13.0988 2.22168 11.043C2.20777 10.9893 2.20022 10.9336 2.2002 10.877V7.8252C2.2002 5.97634 3.70731 4.47275 5.56055 4.47266H7.29297C7.45849 3.19431 8.54093 2.20026 9.86328 2.2002H12.1367ZM9.86328 3.52051C9.27081 3.52057 8.77583 3.92595 8.62793 4.47266H13.3711C13.2232 3.92591 12.7284 3.52052 12.1367 3.52051H9.86328Z" fill="#202123"/>
<path opacity="0.4" d="M2.2 10.1929C2.24402 12.2513 2.36728 15.7722 2.38489 16.1605C2.4474 16.9907 2.76524 17.8298 3.26004 18.4214C3.94854 19.2517 4.7964 19.6223 5.97883 19.6223C7.61292 19.6311 9.41429 19.6311 11.1637 19.6311C12.9202 19.6311 14.6247 19.6311 16.0642 19.6223C17.2299 19.6223 18.1042 19.242 18.7839 18.4214C19.2787 17.8298 19.5965 16.9819 19.6414 16.1605C19.659 15.8338 19.7471 12.0119 19.7999 10.1929H2.2Z" fill="#2D99FF"/>
<path d="M10.3398 13.9836V15.1229C10.3398 15.4874 10.6356 15.7832 11.0001 15.7832C11.3646 15.7832 11.6605 15.4874 11.6605 15.1229V13.9836C11.6605 13.6191 11.3646 13.3232 11.0001 13.3232C10.6356 13.3232 10.3398 13.6191 10.3398 13.9836Z" fill="#2D99FF"/>
<path d="M12.1367 2.2002C13.4582 2.2002 14.5421 3.19421 14.7076 4.4726H16.4482C18.2962 4.4726 19.8 5.97638 19.8 7.8253V10.8769C19.8 11.0988 19.6882 11.3057 19.5042 11.428C17.6887 12.6298 15.5334 13.4302 13.2725 13.7427C13.2417 13.7471 13.2117 13.7489 13.1818 13.7489C12.8833 13.7489 12.6165 13.5473 12.5417 13.2514C12.3639 12.5506 11.7273 12.0602 10.9957 12.0602C10.2543 12.0602 9.62482 12.54 9.42936 13.2549C9.34132 13.5745 9.03405 13.7788 8.70124 13.7348C6.45525 13.4213 4.30875 12.6246 2.49681 11.428C2.31104 11.3065 2.2001 11.0988 2.2001 10.8769V7.8253C2.2001 5.97638 3.70741 4.4726 5.56073 4.4726H7.29254C7.45807 3.19421 8.541 2.2002 9.86342 2.2002H12.1367ZM12.1367 3.52085H9.86342C9.27088 3.52085 8.77608 3.92585 8.62817 4.4726H13.3711C13.2232 3.92585 12.7284 3.52085 12.1367 3.52085Z" fill="#2D99FF"/>
</svg>
