<svg width="48" height="48" viewBox="0 0 48 48" fill="none" xmlns="http://www.w3.org/2000/svg">
<rect width="48" height="48" rx="24" fill="#333333" fill-opacity="0.7"/>
<path d="M23.9996 21.7147C24.9236 21.7147 25.7948 22.0751 26.446 22.7256C27.0972 23.3849 27.458 24.2551 27.458 25.1693C27.4492 26.1274 27.062 26.9889 26.4372 27.613C25.8124 28.2371 24.95 28.6239 23.9996 28.6239C23.0756 28.6239 22.2132 28.2635 21.5532 27.613C20.902 26.9537 20.5412 26.0923 20.5412 25.1693C20.5324 24.2551 20.8932 23.3937 21.5444 22.7344C22.2044 22.0751 23.0756 21.7147 23.9996 21.7147ZM23.9996 23.0333C23.4276 23.0333 22.8908 23.253 22.4772 23.6662C22.0724 24.0705 21.8524 24.6067 21.8612 25.1605V25.1693C21.8612 25.7407 22.0812 26.2769 22.486 26.6812C22.8908 27.0856 23.4276 27.3053 23.9996 27.3053C25.1788 27.3053 26.1292 26.3472 26.138 25.1693C26.138 24.5979 25.918 24.0617 25.5132 23.6574C25.1084 23.253 24.5716 23.0333 23.9996 23.0333ZM28.9364 21.5038C29.3764 21.5038 29.7372 21.8642 29.7372 22.3037C29.7372 22.7432 29.3764 23.0948 28.9364 23.0948C28.4964 23.0948 28.1444 22.7432 28.1444 22.3037C28.1444 21.8642 28.4964 21.5038 28.9364 21.5038Z" fill="white"/>
<path opacity="0.5" d="M28.7871 18.928L28.6992 18.7346C28.4616 18.2336 28.1888 17.6534 28.0216 17.3194C27.6167 16.5283 26.9216 16.0887 26.068 16.08H21.9232C21.0696 16.0887 20.3832 16.5283 19.9784 17.3194C19.8024 17.671 19.5032 18.3039 19.2568 18.8225L19.204 18.928C19.1776 18.9983 19.1072 19.0335 19.0368 19.0335C16.916 19.0335 15.2 20.7564 15.2 22.866V28.0874C15.2 30.1971 16.916 31.92 19.0368 31.92H28.9632C31.0752 31.92 32.7999 30.1971 32.7999 28.0874V22.866C32.7999 20.7564 31.0752 19.0335 28.9632 19.0335C28.884 19.0335 28.8223 18.9895 28.7871 18.928Z" fill="white"/>
</svg>
